<?xml version="1.0" encoding="UTF-8" standalone="no"?><!DOCTYPE svg PUBLIC "-//W3C//DTD SVG 1.1//EN" "http://www.w3.org/Graphics/SVG/1.1/DTD/svg11.dtd"><svg width="417px" height="417px" version="1.1" xmlns="http://www.w3.org/2000/svg" xmlns:xlink="http://www.w3.org/1999/xlink" xml:space="preserve" xmlns:serif="http://www.serif.com/" style="fill-rule:evenodd;clip-rule:evenodd;stroke-linejoin:round;stroke-miterlimit:2;"><path d="M394.115,221.058l19.458,-79.166l-69.791,-43.167c1.135,-2.344 1.725,-4.915 1.725,-7.52c0,-8.013 -5.582,-15.021 -13.392,-16.813l-0.375,-23.209c11.893,-2.103 20.646,-12.54 20.646,-24.618c-0,-13.714 -11.286,-25 -25,-25c-13.715,0 -25,11.286 -25,25c-0,12.078 8.752,22.515 20.646,24.618l0.375,23.209c-1.981,0.541 -3.854,1.414 -5.542,2.583c-7.274,5.217 -9.401,15.236 -4.875,22.958l-59.125,50l-94.792,-12.5l-15.333,-37.083c0.129,-0.098 0.269,-0.182 0.417,-0.25c5.935,-4.17 9.476,-10.986 9.476,-18.24c0,-12.229 -10.063,-22.291 -22.292,-22.291c-12.228,-0 -22.291,10.062 -22.291,22.291c-0,12.229 10.063,22.292 22.291,22.292c1.308,-0 2.612,-0.115 3.899,-0.344l15.792,38.209l-47.75,62.875c-2.179,-0.946 -4.529,-1.434 -6.904,-1.434c-7.2,-0 -13.684,4.487 -16.221,11.225l-27.125,-3.083c-0.257,-4.656 -1.848,-9.141 -4.584,-12.917c-4.687,-6.573 -12.281,-10.485 -20.355,-10.485c-13.714,0 -25,11.286 -25,25c0,13.715 11.286,25 25,25c11.053,0 20.855,-7.33 23.98,-17.931l27.167,3.083c1.128,8.54 8.488,14.992 17.102,14.992c1.255,-0 2.506,-0.137 3.731,-0.409l30.125,73.792l-26.458,47.208c-2.144,-0.677 -4.38,-1.022 -6.628,-1.022c-12.069,0 -22,9.931 -22,22c-0,12.069 9.931,22 22,22c12.068,0 22,-9.931 22,-22c-0,-4.525 -1.396,-8.941 -3.997,-12.644c-0.966,-1.347 -2.085,-2.577 -3.333,-3.667l26.708,-47.667l77.042,10.167c0.285,3.005 1.363,5.882 3.125,8.333c3.793,5.275 10.24,7.999 16.666,7.042l11.459,27.667l-1.125,0.75c-6.457,4.701 -10.284,12.223 -10.284,20.209c0,13.715 11.285,25 25,25c13.715,0 25,-11.285 25,-25c0,-13.714 -11.285,-25 -25,-25c-1.867,0 -3.729,0.209 -5.55,0.624l-11.541,-27.875c7.538,-5.662 9.198,-16.46 3.708,-24.125c-0.5,-0.685 -1.058,-1.326 -1.667,-1.917l48.25,-63.708l77.459,-5.625c0.528,1.733 1.315,3.376 2.333,4.875c3.274,4.59 8.576,7.321 14.214,7.321c9.577,0 17.458,-7.88 17.458,-17.458c0,-7.071 -4.296,-13.474 -10.839,-16.155l-0.083,0Zm-155.833,86.334c-8.786,-2.985 -18.488,1.606 -21.75,10.291l-79.167,-10.416l-29.792,-73c7,-5.817 8.336,-16.181 3.042,-23.584c-0.228,-0.283 -0.479,-0.548 -0.75,-0.791l48.667,-64.125l91.666,12.125l35.417,86.958l-47.333,62.542Zm147.625,-87.5c-3.127,0.232 -6.128,1.328 -8.667,3.166c-3.737,2.668 -6.258,6.72 -7,11.25l-77.417,5.542l-33.916,-83.333l59.791,-50.417c5.998,3.829 13.765,3.614 19.542,-0.542l0.292,-0.25l65.583,40.459l-18.208,74.125Z" style="fill-rule:nonzero;"/></svg>